<svg width="24" height="25" viewBox="0 0 24 25" fill="none" xmlns="http://www.w3.org/2000/svg">
  <path d="M19.5 8.75H4.5C4.08579 8.75 3.75 9.08579 3.75 9.5V20C3.75 20.4142 4.08579 20.75 4.5 20.75H19.5C19.9142 20.75 20.25 20.4142 20.25 20V9.5C20.25 9.08579 19.9142 8.75 19.5 8.75Z" stroke="currentColor" stroke-width="1.5" stroke-linecap="round" stroke-linejoin="round"/>
  <path d="M8.625 8.75V5.375C8.625 4.47989 8.98058 3.62145 9.61351 2.98851C10.2465 2.35558 11.1049 2 12 2C12.8951 2 13.7535 2.35558 14.3865 2.98851C15.0194 3.62145 15.375 4.47989 15.375 5.375V8.75" stroke="currentColor" stroke-width="1.5" stroke-linecap="round" stroke-linejoin="round"/>
  <path d="M12 15.875C12.6213 15.875 13.125 15.3713 13.125 14.75C13.125 14.1287 12.6213 13.625 12 13.625C11.3787 13.625 10.875 14.1287 10.875 14.75C10.875 15.3713 11.3787 15.875 12 15.875Z" fill="currentColor"/>
</svg>
